<svg width="344" height="231" viewBox="0 0 344 231" fill="none" xmlns="http://www.w3.org/2000/svg">
<path d="M277.663 43.7422C277.982 45.913 277.654 48.1303 276.721 50.1134C275.788 52.0964 274.292 53.756 272.422 54.882C270.552 56.008 268.392 56.5498 266.216 56.4387C264.041 56.3276 261.946 55.5687 260.199 54.258C258.452 52.9474 257.13 51.1439 256.4 49.076C255.671 47.0081 255.568 44.7687 256.103 42.6415C256.638 40.5142 257.788 38.5948 259.407 37.1261C261.025 35.6575 263.04 34.7057 265.197 34.3913C268.08 33.9708 271.011 34.719 273.348 36.4718C275.685 38.2246 277.237 40.839 277.663 43.7422Z" fill="#F5F5F5"/>
<path d="M275.076 44.1208C275.319 45.7749 275.07 47.4644 274.359 48.9755C273.649 50.4867 272.509 51.7515 271.084 52.6099C269.66 53.4683 268.015 53.8817 266.357 53.7978C264.699 53.7139 263.103 53.1364 261.771 52.1384C260.439 51.1405 259.431 49.7669 258.874 48.1916C258.318 46.6163 258.238 44.9101 258.644 43.289C259.051 41.6678 259.926 40.2046 261.158 39.0845C262.391 37.9645 263.925 37.2379 265.568 36.9968C267.767 36.6716 270.004 37.2395 271.787 38.5755C273.57 39.9115 274.753 41.9062 275.076 44.1208Z" fill="#EBEBEB"/>
<path d="M275.035 43.8573C274.88 43.5473 274.757 43.2222 274.668 42.8871C274.144 41.408 273.231 40.1002 272.026 39.1033C271.466 38.6459 270.849 38.2639 270.191 37.9668C269.839 37.8016 269.474 37.6641 269.1 37.5556C268.711 37.4416 268.313 37.3567 267.912 37.3015C267.497 37.2464 267.078 37.2217 266.66 37.2276C266.228 37.2411 265.797 37.2844 265.371 37.3569C264.946 37.4346 264.527 37.5443 264.119 37.685C263.72 37.8205 263.334 37.9889 262.963 38.1885C262.604 38.3785 262.261 38.5963 261.935 38.84C261.621 39.0689 261.325 39.3222 261.05 39.5976C260.535 40.1071 260.088 40.6817 259.72 41.307C259.4 41.8543 259.14 42.4353 258.945 43.0395C258.668 43.9228 258.527 44.8437 258.528 45.77C258.564 46.1155 258.564 46.4639 258.528 46.8095C258.376 46.4889 258.294 46.139 258.289 45.7838C258.189 44.8199 258.267 43.8456 258.518 42.9102C258.898 41.5047 259.628 40.2199 260.637 39.1772C260.922 38.8774 261.229 38.5994 261.555 38.3456C262.263 37.8001 263.052 37.3712 263.894 37.0751C264.335 36.9252 264.785 36.8063 265.242 36.7194C265.697 36.6416 266.157 36.5968 266.618 36.5854C267.071 36.5786 267.524 36.6095 267.971 36.6778C268.405 36.7382 268.834 36.8356 269.251 36.9689C269.651 37.0915 270.041 37.246 270.416 37.4309C271.113 37.7642 271.761 38.1916 272.343 38.7014C272.855 39.1432 273.313 39.6441 273.709 40.1936C274.267 40.9845 274.675 41.8727 274.911 42.8132C275.025 43.1484 275.068 43.5043 275.035 43.8573Z" fill="#E0E0E0"/>
<path d="M268.435 50.1821L268.664 51.6374L267.375 51.8453L267.15 50.4316C265.999 50.5733 264.831 50.3877 263.779 49.8957L264.238 48.2001C265.059 48.6 265.969 48.7783 266.88 48.7176L266.536 46.5508C265.05 46.4307 263.38 46.2089 263.082 44.3517C262.866 42.9657 263.669 41.6397 265.664 41.0761L265.439 39.6347L266.724 39.4268L266.948 40.8451C267.882 40.7449 268.826 40.8716 269.7 41.2147L269.311 42.9102C268.648 42.6565 267.942 42.5356 267.233 42.5545L267.581 44.7629C269.067 44.8691 270.714 45.0955 271.003 46.925C271.209 48.2879 270.416 49.6139 268.435 50.1821ZM266.233 44.6381L265.939 42.7901C265.283 43.0535 265.072 43.4739 265.141 43.9035C265.21 44.3332 265.637 44.5688 266.233 44.6566V44.6381ZM268.944 47.4101C268.875 46.9481 268.462 46.7679 267.875 46.6617L268.159 48.4542C268.779 48.2232 269.012 47.8444 268.944 47.4286V47.4101Z" fill="#E0E0E0"/>
<path d="M243.373 45.7055C243.925 49.4724 243.356 53.3197 241.737 56.7605C240.117 60.2012 237.521 63.0806 234.276 65.0343C231.031 66.988 227.284 67.9281 223.509 67.7356C219.733 67.5431 216.099 66.2267 213.067 63.9529C210.035 61.6791 207.74 58.5503 206.474 54.9624C205.208 51.3746 205.027 47.489 205.955 43.7976C206.882 40.1062 208.876 36.7749 211.684 34.2254C214.492 31.6759 217.987 30.0229 221.728 29.4755C226.735 28.7367 231.829 30.0316 235.888 33.0753C239.947 36.119 242.639 40.6622 243.373 45.7055Z" fill="#F5F5F5"/>
<path d="M238.874 46.3615C239.294 49.2313 238.86 52.1623 237.627 54.7837C236.393 57.405 234.415 59.599 231.944 61.0879C229.472 62.5768 226.617 63.2938 223.741 63.1482C220.865 63.0026 218.096 62.0009 215.785 60.2699C213.474 58.5389 211.724 56.1563 210.758 53.4236C209.791 50.6908 209.651 47.7308 210.355 44.9179C211.059 42.105 212.576 39.5656 214.713 37.6211C216.85 35.6765 219.512 34.4142 222.362 33.9938C224.252 33.7123 226.179 33.8091 228.033 34.2786C229.886 34.748 231.63 35.5809 233.163 36.7296C234.697 37.8782 235.991 39.3202 236.97 40.9729C237.95 42.6257 238.597 44.4568 238.874 46.3615Z" fill="#EBEBEB"/>
<path d="M238.805 45.9087C238.718 45.9087 238.566 45.2988 238.172 44.2178C237.627 42.7058 236.853 41.2877 235.879 40.0136C235.202 39.146 234.433 38.3559 233.585 37.6574C232.614 36.8634 231.545 36.1974 230.407 35.6754C229.792 35.393 229.157 35.1567 228.508 34.9685C227.834 34.7608 227.146 34.6064 226.448 34.5065C225.727 34.4074 224.998 34.3642 224.27 34.3772C222.766 34.4015 221.277 34.6682 219.857 35.1672C219.171 35.4122 218.506 35.7119 217.867 36.0635C217.245 36.3934 216.648 36.7703 216.083 37.1907C215.539 37.5942 215.024 38.0358 214.541 38.5121C213.654 39.3977 212.883 40.3946 212.248 41.4781C211.693 42.4287 211.243 43.4372 210.904 44.4857C210.423 46.0206 210.178 47.6208 210.179 49.2305C210.179 50.3762 210.253 51.0184 210.179 51.0323C210.106 51.0461 209.9 50.427 209.762 49.2536C209.586 47.5783 209.722 45.8847 210.161 44.2593C210.813 41.8219 212.077 39.5945 213.83 37.7913C214.333 37.2641 214.878 36.7789 215.459 36.3407C216.052 35.8835 216.679 35.4727 217.335 35.1117C218.026 34.7319 218.747 34.4104 219.49 34.1508C220.255 33.8845 221.039 33.676 221.834 33.5271C222.632 33.3903 223.438 33.3146 224.247 33.3007C225.032 33.2881 225.818 33.3391 226.595 33.4532C227.346 33.562 228.086 33.7304 228.811 33.9567C229.503 34.1706 230.18 34.4362 230.833 34.7514C232.043 35.3323 233.169 36.0752 234.182 36.9597C235.054 37.73 235.833 38.6016 236.502 39.5562C237.473 40.9276 238.18 42.4694 238.589 44.1023C238.865 45.2434 238.869 45.8994 238.805 45.9087Z" fill="#E0E0E0"/>
<path d="M227.347 56.8905L227.747 59.413L225.513 59.7687L225.123 57.3155C222.889 57.5373 220.651 57.1815 219.27 56.3915L220.059 53.4439C221.483 54.146 223.063 54.4643 224.646 54.3679L224.045 50.6073C221.467 50.3994 218.564 50.0113 218.05 46.7911C217.674 44.4026 219.069 42.0787 222.536 41.1039L222.137 38.6045L224.375 38.2441L224.765 40.6974C226.379 40.5292 228.009 40.7493 229.522 41.3395L228.875 44.2917C227.726 43.8453 226.501 43.6333 225.27 43.668L225.875 47.498C228.453 47.6828 231.31 48.0755 231.815 51.2494C232.163 53.5918 230.787 55.9018 227.347 56.8905ZM223.527 47.2947L223.022 44.0977C221.88 44.5597 221.513 45.2896 221.646 46.0335C221.779 46.7773 222.495 47.1238 223.527 47.2947ZM228.237 52.1041C228.113 51.3141 227.393 50.9907 226.38 50.8059L226.875 53.9152C227.957 53.4901 228.352 52.8249 228.237 52.1041Z" fill="#E0E0E0"/>
<path d="M74.4736 111.231C74.7932 113.402 74.4661 115.619 73.5339 117.602C72.6016 119.586 71.106 121.246 69.2365 122.373C67.367 123.499 65.2077 124.042 63.0318 123.932C60.856 123.821 58.7616 123.063 57.0137 121.753C55.2658 120.444 53.9431 118.641 53.2131 116.573C52.4831 114.506 52.3785 112.266 52.9127 110.139C53.4468 108.011 54.5957 106.092 56.2138 104.622C57.8319 103.153 59.8465 102.2 62.0024 101.885C64.8859 101.463 67.8179 102.21 70.1556 103.962C72.4934 105.714 74.0461 108.328 74.4736 111.231Z" fill="#F5F5F5"/>
<path d="M71.8823 111.61C72.1256 113.264 71.8761 114.954 71.1654 116.465C70.4548 117.976 69.3149 119.241 67.89 120.1C66.4652 120.958 64.8196 121.372 63.1615 121.287C61.5033 121.203 59.9073 120.625 58.5754 119.627C57.2435 118.628 56.2357 117.254 55.6795 115.679C55.1234 114.103 55.0439 112.397 55.4511 110.775C55.8583 109.154 56.734 107.691 57.9672 106.572C59.2004 105.452 60.7357 104.726 62.3787 104.486C64.5765 104.163 66.8116 104.732 68.5934 106.068C70.3752 107.403 71.558 109.397 71.8823 111.61Z" fill="#EBEBEB"/>
<path d="M71.8409 111.342C71.6862 111.031 71.5647 110.704 71.4786 110.367C71.1622 109.495 70.7134 108.679 70.1485 107.946C69.7603 107.446 69.3188 106.991 68.8321 106.588C68.2722 106.129 67.6555 105.745 66.9974 105.447C66.6448 105.282 66.2798 105.146 65.9058 105.04C65.5172 104.923 65.1199 104.838 64.7178 104.786C64.303 104.728 63.8843 104.704 63.4657 104.712C63.0336 104.722 62.6028 104.763 62.1768 104.837C60.9331 105.056 59.757 105.564 58.7414 106.32C58.4282 106.552 58.1323 106.806 57.8562 107.082C57.3414 107.59 56.8943 108.163 56.5261 108.787C56.2066 109.335 55.9467 109.915 55.7509 110.519C55.4736 111.404 55.3328 112.326 55.3335 113.254C55.3723 113.6 55.3723 113.948 55.3335 114.294C55.1826 113.973 55.1013 113.623 55.095 113.268C54.9942 112.303 55.072 111.327 55.3244 110.39C55.501 109.747 55.7519 109.126 56.072 108.542C56.4478 107.868 56.9105 107.246 57.448 106.694C57.7313 106.391 58.038 106.112 58.3653 105.858C59.0766 105.318 59.8654 104.891 60.7045 104.592C61.1459 104.438 61.5982 104.317 62.0576 104.231C62.5125 104.155 62.9724 104.111 63.4336 104.102C63.8938 104.095 64.3539 104.124 64.8096 104.19C65.2416 104.252 65.668 104.35 66.0847 104.481C66.4839 104.606 66.8733 104.76 67.2497 104.943C68.5578 105.567 69.6829 106.522 70.5154 107.715C71.0731 108.506 71.4806 109.394 71.7171 110.334C71.8257 110.658 71.8678 111.001 71.8409 111.342Z" fill="#E0E0E0"/>
<path d="M65.2408 117.676L65.4701 119.127L64.1813 119.335L63.9565 117.921C62.8069 118.071 61.6385 117.891 60.5853 117.403L61.044 115.703C61.8661 116.106 62.7786 116.284 63.6905 116.221L63.3419 114.054C61.8604 113.938 60.1863 113.717 59.8927 111.859C59.6726 110.473 60.4753 109.143 62.475 108.584L62.2457 107.142L63.5346 106.935L63.7593 108.348C64.6928 108.248 65.6366 108.374 66.5113 108.718L66.1214 110.418C65.4598 110.16 64.753 110.039 64.0437 110.062L64.3923 112.266C65.8783 112.372 67.525 112.599 67.8139 114.428C68.0157 115.777 67.2222 117.103 65.2408 117.676ZM63.0392 112.132L62.7457 110.284C62.0898 110.552 61.8788 110.968 61.9476 111.397C62.0164 111.827 62.4429 112.058 63.0392 112.151V112.132ZM65.7545 114.904C65.6811 114.442 65.2683 114.267 64.6812 114.16L64.9656 115.948C65.5894 115.717 65.8187 115.334 65.7545 114.918V114.904Z" fill="#E0E0E0"/>
<path d="M55.6179 86.8279C54.4215 87.5924 53.0268 87.9822 51.6104 87.9479C50.1939 87.9136 48.8194 87.4568 47.6609 86.6353C46.5023 85.8138 45.6118 84.6645 45.102 83.3329C44.5923 82.0013 44.4862 80.5474 44.7972 79.155C45.1082 77.7627 45.8224 76.4946 46.8493 75.5113C47.8762 74.528 49.1696 73.8737 50.5658 73.6312C51.9621 73.3887 53.3984 73.569 54.6929 74.1491C55.9874 74.7293 57.0819 75.6832 57.8378 76.8903C58.3399 77.6896 58.6807 78.5807 58.8409 79.5127C59.001 80.4447 58.9773 81.3994 58.7712 82.3222C58.565 83.245 58.1805 84.1178 57.6394 84.8909C57.0984 85.664 56.4115 86.3222 55.6179 86.8279Z" fill="#F5F5F5"/>
<path d="M54.7049 85.3775C53.7925 85.9595 52.7292 86.2557 51.6495 86.2288C50.5698 86.2018 49.5224 85.8528 48.6397 85.226C47.7571 84.5992 47.0789 83.7227 46.6909 82.7074C46.303 81.6922 46.2228 80.5839 46.4605 79.5227C46.6982 78.4616 47.243 77.4953 48.0261 76.7462C48.8093 75.997 49.7954 75.4988 50.8598 75.3144C51.9241 75.13 53.0189 75.2679 54.0054 75.7104C54.992 76.153 55.826 76.8805 56.402 77.8007C57.1742 79.0322 57.4292 80.5222 57.111 81.943C56.7927 83.3639 55.9273 84.5993 54.7049 85.3775Z" fill="#EBEBEB"/>
<path d="M54.8521 85.2852C54.8521 85.2575 55.0218 85.1097 55.3108 84.8232C55.7426 84.4041 56.1063 83.9192 56.3886 83.3864C56.8072 82.6039 57.0278 81.7296 57.0308 80.8408C57.0358 80.5858 57.0205 80.3309 56.9849 80.0785C56.9497 79.8159 56.8945 79.5564 56.8198 79.3023C56.7432 79.0381 56.6466 78.7801 56.5308 78.5308C56.293 78.0211 55.9755 77.5532 55.5906 77.1448C55.406 76.9433 55.205 76.7579 54.9897 76.5904C54.7838 76.4189 54.5644 76.2644 54.3338 76.1284C54.1207 75.9902 53.8967 75.8696 53.6642 75.768C53.2222 75.5932 52.7597 75.4768 52.2882 75.4215C51.881 75.38 51.4707 75.38 51.0635 75.4215C50.4682 75.4836 49.8862 75.6395 49.3389 75.8835C49.1417 75.9931 48.9343 76.0828 48.7197 76.1515C48.7197 76.1515 48.8848 75.9621 49.2655 75.7357C49.8077 75.4208 50.4035 75.2108 51.0222 75.1166C51.4513 75.0474 51.8871 75.0304 52.3203 75.0658C52.8208 75.1089 53.313 75.2208 53.7834 75.3984C54.0398 75.4922 54.2882 75.6065 54.5264 75.7403C54.7754 75.8747 55.0132 76.0292 55.2374 76.2023C55.7105 76.5718 56.1223 77.0147 56.4574 77.5144C56.6306 77.7684 56.784 78.0357 56.9161 78.3136C57.0393 78.5826 57.142 78.8606 57.2234 79.1452C57.2999 79.4208 57.3551 79.7019 57.3885 79.9861C57.4234 80.2587 57.4357 80.5338 57.4252 80.8084C57.4126 81.3129 57.3324 81.8133 57.1867 82.2961C57.0573 82.7149 56.8787 83.1166 56.6547 83.4927C56.3357 84.0368 55.9189 84.5162 55.4254 84.9064C55.2625 85.0714 55.0672 85.2004 54.8521 85.2852Z" fill="#E0E0E0"/>
<path d="M49.3754 83.0026L48.5773 83.5246L48.1187 82.8085L48.8938 82.3003C48.5 81.6515 48.298 80.9031 48.3113 80.1428L49.4304 79.9672C49.4113 80.5664 49.5472 81.1603 49.8249 81.6905L51.0128 80.9097C50.6918 79.9857 50.3799 78.9277 51.3981 78.2624C52.1503 77.7681 53.1548 77.8928 54.0125 78.9416L54.8014 78.4241L55.2601 79.1402L54.4849 79.6484C54.7883 80.1789 54.9628 80.7742 54.9941 81.3856L53.8841 81.6027C53.8623 81.1381 53.7484 80.6826 53.5493 80.2629L52.3384 81.0575C52.6686 81.9815 52.9713 83.021 51.9669 83.6771C51.2284 84.1622 50.2331 84.0375 49.3754 83.0026ZM52.054 80.2306L53.0631 79.5653C52.7328 79.2419 52.4301 79.228 52.1962 79.3805C51.9623 79.533 51.9485 79.8425 52.054 80.2259V80.2306ZM51.1367 82.5868C51.3844 82.4204 51.3844 82.1248 51.2926 81.7459L50.3111 82.3927C50.623 82.6976 50.9119 82.73 51.1367 82.5821V82.5868Z" fill="#E0E0E0"/>
<path d="M247.68 27.3225C246.484 28.087 245.089 28.4768 243.672 28.4426C242.256 28.4083 240.881 27.9515 239.723 27.1299C238.564 26.3084 237.674 25.1591 237.164 23.8275C236.654 22.496 236.548 21.042 236.859 19.6497C237.17 18.2573 237.884 16.9893 238.911 16.006C239.938 15.0227 241.232 14.3683 242.628 14.1259C244.024 13.8834 245.46 14.0636 246.755 14.6438C248.049 15.2239 249.144 16.1779 249.9 17.3849C250.403 18.184 250.744 19.0752 250.904 20.0073C251.065 20.9394 251.041 21.8943 250.835 22.8172C250.629 23.7402 250.244 24.6132 249.703 25.3862C249.161 26.1593 248.474 26.8173 247.68 27.3225Z" fill="#F5F5F5"/>
<path d="M246.763 25.8716C245.85 26.4549 244.787 26.7524 243.707 26.7265C242.627 26.7006 241.579 26.3524 240.696 25.7261C239.812 25.0998 239.133 24.2235 238.744 23.2082C238.356 22.1929 238.275 21.0843 238.512 20.0227C238.749 18.9611 239.294 17.9943 240.077 17.2447C240.86 16.4952 241.847 15.9966 242.912 15.812C243.976 15.6275 245.071 15.7654 246.058 16.2082C247.045 16.651 247.879 17.3788 248.455 18.2995C249.227 19.5297 249.483 21.0186 249.166 22.4386C248.848 23.8586 247.984 25.0935 246.763 25.8716Z" fill="#EBEBEB"/>
<path d="M246.9 25.7796C246.9 25.7519 247.07 25.6041 247.359 25.3176C247.791 24.8985 248.155 24.4137 248.437 23.8808C248.634 23.5182 248.788 23.1337 248.896 22.735C249.017 22.283 249.082 21.8173 249.088 21.349C249.097 21.0853 249.086 20.8212 249.056 20.559C249.021 20.2964 248.966 20.0369 248.891 19.7829C248.816 19.5182 248.719 19.2602 248.602 19.0113C248.483 18.7547 248.345 18.5076 248.189 18.2721C248.036 18.0396 247.866 17.8188 247.68 17.6115C247.494 17.4084 247.292 17.2214 247.075 17.0524C246.87 16.8799 246.65 16.7253 246.419 16.5904C246.199 16.4629 245.971 16.3517 245.735 16.2578C245.294 16.0824 244.831 15.9674 244.359 15.9159C243.953 15.8698 243.542 15.8698 243.135 15.9159C242.54 15.9782 241.958 16.1341 241.41 16.3779C241.214 16.4899 241.007 16.5798 240.791 16.6459C240.791 16.6459 240.956 16.4565 241.337 16.2301C241.881 15.9233 242.476 15.7211 243.094 15.6341C243.523 15.5643 243.959 15.5488 244.392 15.5879C244.892 15.6292 245.384 15.7395 245.855 15.9159C246.111 16.0097 246.36 16.124 246.598 16.2578C247.108 16.5408 247.572 16.9007 247.974 17.325C248.176 17.5412 248.362 17.7729 248.529 18.018C248.702 18.2722 248.855 18.5394 248.987 18.8173C249.109 19.0863 249.21 19.3643 249.29 19.6489C249.369 19.9239 249.424 20.2052 249.455 20.4897C249.49 20.7623 249.502 21.0374 249.492 21.3121C249.479 21.8165 249.399 22.3169 249.253 22.7997C249.123 23.2285 248.941 23.6397 248.712 24.024C248.392 24.5578 247.977 25.0276 247.488 25.41C247.319 25.5724 247.119 25.6982 246.9 25.7796Z" fill="#E0E0E0"/>
<path d="M241.424 23.4972L240.626 24.0239L240.167 23.3078L240.942 22.7996C240.543 22.1505 240.335 21.4008 240.341 20.6374L241.46 20.4619C241.443 21.0608 241.579 21.6541 241.855 22.1851L243.043 21.4043C242.722 20.4803 242.41 19.4224 243.428 18.7571C244.18 18.2627 245.185 18.3875 246.043 19.4362L246.85 18.9419L247.308 19.658L246.533 20.1662C246.835 20.6986 247.008 21.2954 247.038 21.9079L245.932 22.1204C245.908 21.6572 245.792 21.2035 245.593 20.7853L244.382 21.5753C244.712 22.4993 245.015 23.5388 244.011 24.1948C243.277 24.6568 242.286 24.5321 241.424 23.4972ZM244.102 20.7252L245.111 20.0645C244.781 19.7365 244.478 19.7227 244.245 19.8751C244.011 20.0276 244.011 20.3279 244.102 20.7206V20.7252ZM243.185 23.0814C243.433 22.9151 243.433 22.6194 243.341 22.2452L242.359 22.8874C242.671 23.1877 242.956 23.2246 243.185 23.0999V23.0814Z" fill="#E0E0E0"/>
<path d="M325.773 217.306C325.773 217.371 256.922 217.426 172.009 217.426C87.0963 217.426 18.2275 217.371 18.2275 217.306C18.2275 217.241 87.0642 217.186 172.009 217.186C256.954 217.186 325.773 217.237 325.773 217.306Z" fill="#263238"/>
<path d="M306.848 62.2036H132.224C131.508 62.2036 130.799 62.3457 130.138 62.6218C129.477 62.898 128.876 63.3027 128.37 63.8128C127.864 64.323 127.462 64.9286 127.189 65.595C126.915 66.2614 126.775 66.9756 126.775 67.6968V191.933C126.775 193.389 127.349 194.785 128.371 195.814C129.393 196.844 130.779 197.422 132.224 197.422H199.245C199.245 197.422 203.51 210.7 190.292 217.574H252.959C252.959 217.574 238.048 212.418 241.873 197.422H306.848C308.293 197.422 309.679 196.844 310.701 195.814C311.723 194.785 312.297 193.389 312.297 191.933V67.6968C312.298 66.9756 312.157 66.2614 311.883 65.595C311.61 64.9286 311.209 64.323 310.703 63.8128C310.197 63.3027 309.596 62.898 308.934 62.6218C308.273 62.3457 307.564 62.2036 306.848 62.2036Z" fill="#263238"/>
<path d="M221.866 184.338C224.242 187.756 220.527 191.503 217.128 189.11C217.015 189.029 216.918 188.929 216.839 188.814C214.468 185.396 218.183 181.658 221.577 184.047C221.689 184.127 221.787 184.225 221.866 184.338Z" fill="#455A64"/>
<path d="M134.229 64.481H304.853C306.033 64.481 307.164 64.9531 307.999 65.7935C308.833 66.634 309.302 67.7738 309.302 68.9624V174.696H129.803V68.9624C129.803 67.7778 130.268 66.6414 131.098 65.8017C131.927 64.9619 133.053 64.4871 134.229 64.481Z" fill="white"/>
<path d="M150.879 89.3599H144.989V155.592H150.879V89.3599Z" fill="#1B755E"/>
<path d="M162.244 111.854H156.355V155.592H162.244V111.854Z" fill="#1B755E"/>
<path d="M173.61 97.5928H167.721V155.93H173.61V97.5928Z" fill="#1B755E"/>
<path d="M184.98 91.9194H179.091V155.592H184.98V91.9194Z" fill="#1B755E"/>
<path d="M196.346 113.204H190.457V155.592H196.346V113.204Z" fill="#1B755E"/>
<path d="M207.712 121.515H201.822V155.592H207.712V121.515Z" fill="#1B755E"/>
<path d="M219.078 96.1606H213.188V155.592H219.078V96.1606Z" fill="#1B755E"/>
<path d="M230.443 106.875H224.554V155.592H230.443V106.875Z" fill="#1B755E"/>
<path d="M241.814 98.3135H235.924V155.592H241.814V98.3135Z" fill="#1B755E"/>
<path d="M253.179 116.567H247.29V155.592H253.179V116.567Z" fill="#1B755E"/>
<path d="M275.851 96.1606H269.962V155.592H275.851V96.1606Z" fill="#1B755E"/>
<path d="M299.991 134.4H294.102V154.738H299.991V134.4Z" fill="#1B755E"/>
<path d="M288.221 116.567H282.332V155.592H288.221V116.567Z" fill="#1B755E"/>
<path d="M264.545 109.143H258.656V155.592H264.545V109.143Z" fill="#1B755E"/>
<path d="M301.642 97.805C301.469 97.7896 301.298 97.7618 301.129 97.7219L299.629 97.4123C298.82 97.238 298.002 97.1069 297.179 97.0196C296.062 96.8625 294.936 96.7684 293.808 96.7378C290.715 96.6336 287.62 96.9003 284.589 97.5324C280.583 98.3983 276.729 99.8686 273.159 101.894C268.833 104.349 264.923 107.483 261.578 111.18C257.973 115.162 254.932 120.083 251.822 125.289C248.712 130.496 245.483 136.086 240.855 140.91C238.54 143.402 235.806 145.462 232.778 146.994C231.207 147.763 229.526 148.28 227.797 148.528C226.039 148.764 224.255 148.703 222.518 148.348C219.023 147.572 215.927 145.724 213.321 143.492C210.766 141.275 208.48 138.761 206.51 136.003C202.557 130.644 199.749 124.869 196.745 119.607C193.741 114.345 190.727 109.392 186.989 105.534C185.219 103.656 183.188 102.047 180.958 100.757C179.91 100.148 178.82 99.6156 177.697 99.1633C176.611 98.7595 175.5 98.4277 174.371 98.17C170.379 97.2519 166.221 97.3695 162.286 98.5119C159.314 99.3682 156.508 100.727 153.988 102.531C152.413 103.698 150.954 105.016 149.631 106.468L148.608 107.609C148.496 107.745 148.374 107.872 148.241 107.987C148.331 107.837 148.436 107.696 148.553 107.567L149.521 106.366C150.813 104.868 152.256 103.51 153.828 102.314C156.351 100.453 159.175 99.0458 162.175 98.1561C166.165 96.9491 170.395 96.7901 174.463 97.6941C178.99 98.6181 183.604 101.224 187.37 105.132C191.136 109.041 194.273 113.998 197.263 119.283C200.254 124.569 203.107 130.311 207.019 135.601C208.963 138.322 211.216 140.803 213.734 142.993C216.284 145.178 219.293 146.962 222.642 147.706C224.302 148.043 226.007 148.1 227.687 147.877C229.35 147.636 230.967 147.139 232.48 146.403C235.445 144.903 238.124 142.887 240.392 140.448C244.956 135.721 248.148 130.14 251.304 124.971C254.459 119.801 257.505 114.807 261.174 110.806C264.575 107.088 268.544 103.94 272.93 101.483C276.551 99.459 280.458 98.0054 284.516 97.1721C287.576 96.559 290.7 96.3262 293.817 96.4791C294.953 96.526 296.085 96.6418 297.207 96.8256C298.032 96.9299 298.85 97.0842 299.656 97.2876L301.142 97.6618C301.312 97.6961 301.48 97.744 301.642 97.805Z" fill="#263238"/>
<path d="M138.518 160.207C138.384 160.207 138.274 141.321 138.274 118.027C138.274 94.7328 138.384 75.8462 138.518 75.8462C138.651 75.8462 138.761 94.7281 138.761 118.027C138.761 141.325 138.641 160.207 138.518 160.207Z" fill="#263238"/>
<path d="M299.968 160.208C299.968 160.342 264.651 160.448 221.077 160.448C177.504 160.448 142.187 160.342 142.187 160.208C142.187 160.074 177.504 159.963 221.077 159.963C264.651 159.963 299.968 160.074 299.968 160.208Z" fill="#263238"/>
<path d="M153.388 165.419C153.388 165.553 151.434 165.664 149.021 165.664C146.608 165.664 144.65 165.553 144.65 165.419C144.65 165.285 146.604 165.174 149.021 165.174C151.438 165.174 153.388 165.285 153.388 165.419Z" fill="#263238"/>
<path d="M167.872 165.682C167.872 165.821 165.533 165.927 162.652 165.927C159.772 165.927 157.428 165.821 157.428 165.682C157.428 165.544 159.767 165.442 162.652 165.442C165.537 165.442 167.872 165.548 167.872 165.682Z" fill="#263238"/>
<path d="M180.256 165.682C180.256 165.821 177.917 165.927 175.036 165.927C172.156 165.927 169.812 165.821 169.812 165.682C169.812 165.544 172.151 165.442 175.036 165.442C177.921 165.442 180.256 165.548 180.256 165.682Z" fill="#263238"/>
<path d="M192.604 165.682C192.604 165.821 190.264 165.927 187.384 165.927C184.503 165.927 182.16 165.821 182.16 165.682C182.16 165.544 184.499 165.442 187.384 165.442C190.269 165.442 192.604 165.548 192.604 165.682Z" fill="#263238"/>
<path d="M204.964 165.682C204.964 165.821 202.63 165.927 199.745 165.927C196.86 165.927 194.521 165.821 194.521 165.682C194.521 165.544 196.86 165.442 199.745 165.442C202.63 165.442 204.964 165.548 204.964 165.682Z" fill="#263238"/>
<path d="M217.33 165.682C217.33 165.821 214.991 165.927 212.106 165.927C209.221 165.927 206.886 165.821 206.886 165.682C206.886 165.544 209.221 165.442 212.106 165.442C214.991 165.442 217.33 165.548 217.33 165.682Z" fill="#263238"/>
<path d="M229.691 165.682C229.691 165.821 227.352 165.927 224.467 165.927C221.582 165.927 219.247 165.821 219.247 165.682C219.247 165.544 221.582 165.442 224.467 165.442C227.352 165.442 229.691 165.548 229.691 165.682Z" fill="#263238"/>
<path d="M242.052 165.682C242.052 165.821 239.713 165.927 236.828 165.927C233.943 165.927 231.608 165.821 231.608 165.682C231.608 165.544 233.948 165.442 236.828 165.442C239.708 165.442 242.052 165.548 242.052 165.682Z" fill="#263238"/>
<path d="M254.413 165.682C254.413 165.821 252.074 165.927 249.193 165.927C246.313 165.927 243.969 165.821 243.969 165.682C243.969 165.544 246.308 165.442 249.193 165.442C252.078 165.442 254.413 165.548 254.413 165.682Z" fill="#263238"/>
<path d="M266.774 165.682C266.774 165.821 264.435 165.927 261.555 165.927C258.674 165.927 256.331 165.821 256.331 165.682C256.331 165.544 258.67 165.442 261.555 165.442C264.44 165.442 266.774 165.548 266.774 165.682Z" fill="#263238"/>
<path d="M278.273 165.687C278.273 165.826 275.934 165.932 273.049 165.932C270.164 165.932 267.829 165.826 267.829 165.687C267.829 165.548 270.168 165.447 273.049 165.447C275.929 165.447 278.273 165.553 278.273 165.687Z" fill="#263238"/>
<path d="M289.772 165.691C289.772 165.825 287.433 165.936 284.548 165.936C281.663 165.936 279.328 165.825 279.328 165.691C279.328 165.557 281.663 165.451 284.548 165.451C287.433 165.451 289.772 165.557 289.772 165.691Z" fill="#263238"/>
<path d="M301.266 165.696C301.266 165.83 298.927 165.941 296.046 165.941C293.166 165.941 290.822 165.83 290.822 165.696C290.822 165.562 293.161 165.451 296.046 165.451C298.931 165.451 301.266 165.562 301.266 165.696Z" fill="#263238"/>
<path d="M198.603 120.198C198.603 120.097 199.327 120.351 199.557 121.344C199.703 121.918 199.638 122.525 199.373 123.054C199.195 123.402 198.886 123.664 198.515 123.784C198.113 123.897 197.683 123.846 197.318 123.64C196.988 123.455 196.717 123.179 196.536 122.844C196.355 122.51 196.272 122.131 196.295 121.751C196.317 121.452 196.401 121.161 196.543 120.897C196.684 120.634 196.88 120.403 197.116 120.222C197.271 120.094 197.453 120.003 197.647 119.955C197.842 119.907 198.044 119.903 198.24 119.944C198.515 120.027 198.607 120.161 198.589 120.189C198.57 120.217 197.993 120.004 197.415 120.582C197.097 120.898 196.913 121.325 196.901 121.774C196.899 122.034 196.965 122.29 197.093 122.515C197.221 122.741 197.407 122.928 197.63 123.058C197.73 123.121 197.842 123.163 197.958 123.181C198.074 123.199 198.193 123.193 198.307 123.164C198.421 123.134 198.528 123.082 198.621 123.01C198.715 122.938 198.792 122.847 198.85 122.744C199.069 122.343 199.156 121.882 199.098 121.427C199.02 120.582 198.552 120.277 198.603 120.198Z" fill="#263238"/>
<path d="M276.09 98.4058C276.09 98.3688 276.278 98.3088 276.603 98.4058C277.053 98.5754 277.426 98.9038 277.654 99.3298C277.836 99.6401 277.952 99.9847 277.997 100.342C278.041 100.7 278.011 101.063 277.91 101.409C277.791 101.86 277.531 102.262 277.169 102.554C276.806 102.845 276.361 103.013 275.897 103.03C275.648 103.019 275.405 102.953 275.184 102.837C274.963 102.722 274.77 102.559 274.617 102.36C274.35 102.023 274.165 101.628 274.076 101.205C273.988 100.857 273.972 100.494 274.029 100.138C274.086 99.7833 274.214 99.4436 274.406 99.1404C275.131 98.1101 276.025 98.1609 275.993 98.2164C276.035 98.3134 275.287 98.4566 274.805 99.3575C274.55 99.8786 274.499 100.477 274.663 101.035C274.819 101.644 275.287 102.342 275.92 102.347C276.243 102.32 276.551 102.196 276.804 101.991C277.057 101.786 277.243 101.509 277.337 101.196C277.516 100.648 277.482 100.052 277.241 99.5284C276.998 99.0312 276.591 98.6344 276.09 98.4058Z" fill="#263238"/>
<path d="M209.285 30.8662H91.1279V123.493H209.285V30.8662Z" fill="white"/>
<path d="M209.285 123.492C209.285 122.568 209.244 86.7634 209.175 30.8661L209.285 30.9769H91.1416L91.2746 30.843C91.2746 64.2317 91.2746 95.8094 91.2746 123.469L91.1554 123.349L209.313 123.469L91.1554 123.589H91.0361V123.469C91.0361 95.8094 91.0361 64.2317 91.0361 30.843V30.709H91.1829H209.326H209.436V30.8199C209.331 86.7634 209.29 122.568 209.285 123.492Z" fill="#263238"/>
<path d="M116.019 43.0352H96.8931V44.107H116.019V43.0352Z" fill="#263238"/>
<path d="M106.346 45.5439H96.8931V46.6158H106.346V45.5439Z" fill="#263238"/>
<path d="M111.259 110.182H107.796V111.189H111.259V110.182Z" fill="#263238"/>
<path d="M120.065 115.56H115.634V116.567H120.065V115.56Z" fill="#263238"/>
<path d="M135.49 115.56H131.06V116.567H135.49V115.56Z" fill="#263238"/>
<path d="M150.915 115.56H146.484V116.567H150.915V115.56Z" fill="#263238"/>
<path d="M166.34 115.56H161.909V116.567H166.34V115.56Z" fill="#263238"/>
<path d="M181.765 115.56H177.334V116.567H181.765V115.56Z" fill="#263238"/>
<path d="M197.19 115.56H192.759V116.567H197.19V115.56Z" fill="#263238"/>
<path d="M111.259 96.752H107.796V97.7591H111.259V96.752Z" fill="#263238"/>
<path d="M111.259 71.4712H107.796V72.4784H111.259V71.4712Z" fill="#263238"/>
<path d="M111.259 58.7661H107.796V59.7733H111.259V58.7661Z" fill="#263238"/>
<path d="M111.438 84.1113H107.975V85.1185H111.438V84.1113Z" fill="#263238"/>
<path d="M197.066 111.189C197.066 111.189 196.942 111.189 196.695 111.189H195.603L191.411 111.213L175.995 111.254L125.124 111.286H112.951V111.166C112.951 94.0308 112.983 78.9511 112.992 68.1495C112.992 62.7534 113.02 58.4475 113.029 55.4445C113.029 53.9615 113.029 52.8111 113.029 52.0257C113.029 51.6376 113.029 51.3466 113.029 51.1387C113.029 50.9308 113.029 50.8384 113.029 50.8384C113.029 50.8384 113.029 50.94 113.029 51.1387C113.029 51.3373 113.029 51.6376 113.029 52.0257C113.029 52.8111 113.029 53.9615 113.029 55.4445C113.029 58.429 113.029 62.7534 113.066 68.1495C113.066 78.9511 113.089 94.0215 113.107 111.166L112.988 111.046H125.124L175.995 111.083L191.411 111.12L195.603 111.143H196.695L197.066 111.189Z" fill="#263238"/>
<path d="M198.043 84.6152C198.043 84.6799 179.77 84.7354 157.222 84.7354C134.674 84.7354 116.4 84.6799 116.4 84.6152C116.4 84.5506 134.669 84.4951 157.222 84.4951C179.774 84.4951 198.043 84.5459 198.043 84.6152Z" fill="#263238"/>
<path d="M198.043 71.9746C198.043 72.0393 179.77 72.0947 157.222 72.0947C134.674 72.0947 116.4 72.0393 116.4 71.9746C116.4 71.9099 134.669 71.8545 157.222 71.8545C179.774 71.8545 198.043 71.9099 198.043 71.9746Z" fill="#263238"/>
<path d="M198.043 59.27C198.043 59.3393 179.77 59.3901 157.222 59.3901C134.674 59.3901 116.4 59.3393 116.4 59.27C116.4 59.2007 134.669 59.1499 157.222 59.1499C179.774 59.1499 198.043 59.2053 198.043 59.27Z" fill="#263238"/>
<path d="M198.043 97.2554C198.043 97.3201 179.77 97.3755 157.222 97.3755C134.674 97.3755 116.4 97.3201 116.4 97.2554C116.4 97.1907 134.669 97.1353 157.222 97.1353C179.774 97.1353 198.043 97.1907 198.043 97.2554Z" fill="#263238"/>
<path d="M117.263 108.468V97.2552L124.202 86.3936L128.913 90.0342L138.577 74.9129L144.278 78.9554L152.209 65.003L158.63 70.2929L168.331 51.7944L178.742 72.4782L187.136 62.1294L197.048 59.2696V108.468H117.263Z" fill="#455A64"/>
<path d="M198.043 55.2873C197.985 55.2913 197.927 55.2913 197.869 55.2873H197.351H195.342L187.732 55.3197L187.783 55.292L179.628 66.0658L179.596 66.1028H179.55H159.139L159.24 66.0473L150.658 80.434C147.737 85.3312 144.907 90.0667 142.233 94.5389L142.146 94.6913L142.045 94.5481L130.982 79.242H131.142L121.088 95.0794L118.286 99.4592C117.965 99.9581 117.717 100.342 117.543 100.605C117.368 100.868 117.281 100.993 117.281 100.993C117.281 100.993 117.359 100.854 117.52 100.591L118.235 99.4314C118.873 98.4104 119.804 96.9182 120.987 95.0193L130.986 79.1404L131.064 79.0203L131.151 79.1358L142.237 94.4234H142.045L150.443 80.3231L159.034 65.9364L159.066 65.881H159.158L179.568 65.9041L179.495 65.9411L187.7 55.2504V55.2227H187.732L195.342 55.255H197.351H197.869L198.043 55.2873Z" fill="#263238"/>
<path d="M134.389 82.7856C134.396 82.9431 134.355 83.0989 134.273 83.233C134.191 83.3671 134.071 83.4734 133.928 83.5382C133.785 83.6029 133.627 83.6233 133.473 83.5966C133.318 83.5698 133.176 83.4972 133.063 83.3882C132.95 83.2791 132.872 83.1385 132.839 82.9844C132.806 82.8303 132.819 82.6699 132.878 82.5236C132.936 82.3773 133.036 82.252 133.166 82.1637C133.296 82.0754 133.448 82.0281 133.605 82.028C133.809 82.0242 134.005 82.1018 134.152 82.2438C134.299 82.3858 134.384 82.5806 134.389 82.7856Z" fill="#263238"/>
<path d="M157.946 69.2998C157.953 69.4575 157.912 69.6135 157.83 69.7477C157.747 69.8819 157.627 69.9881 157.484 70.0528C157.341 70.1174 157.182 70.1375 157.028 70.1104C156.874 70.0833 156.731 70.0103 156.618 69.9007C156.505 69.7911 156.428 69.6501 156.395 69.4957C156.363 69.3413 156.377 69.1807 156.436 69.0345C156.495 68.8884 156.596 68.7633 156.727 68.6756C156.857 68.5878 157.01 68.5413 157.167 68.5421C157.267 68.5403 157.367 68.5584 157.461 68.5955C157.554 68.6326 157.64 68.6879 157.712 68.7583C157.785 68.8286 157.843 68.9127 157.883 69.0056C157.923 69.0985 157.945 69.1985 157.946 69.2998Z" fill="#263238"/>
<path d="M175.467 66.7541C175.901 66.7541 176.252 66.4149 176.252 65.9964C176.252 65.578 175.901 65.2388 175.467 65.2388C175.034 65.2388 174.683 65.578 174.683 65.9964C174.683 66.4149 175.034 66.7541 175.467 66.7541Z" fill="#263238"/>
<path d="M96.0676 34.6774C96.0676 34.8602 96.0138 35.0388 95.913 35.1908C95.8122 35.3427 95.6689 35.4611 95.5013 35.5311C95.3337 35.601 95.1492 35.6193 94.9713 35.5837C94.7933 35.548 94.6299 35.46 94.5016 35.3308C94.3733 35.2016 94.2859 35.0369 94.2505 34.8577C94.2151 34.6784 94.2333 34.4927 94.3027 34.3238C94.3722 34.155 94.4897 34.0107 94.6406 33.9091C94.7915 33.8076 94.9688 33.7534 95.1502 33.7534C95.3935 33.7534 95.6269 33.8508 95.7989 34.0241C95.9709 34.1973 96.0676 34.4324 96.0676 34.6774Z" fill="#263238"/>
<path d="M98.7097 34.6774C98.7097 34.8602 98.6559 35.0388 98.5551 35.1908C98.4543 35.3427 98.311 35.4611 98.1434 35.5311C97.9758 35.601 97.7913 35.6193 97.6134 35.5837C97.4354 35.548 97.272 35.46 97.1437 35.3308C97.0154 35.2016 96.928 35.0369 96.8926 34.8577C96.8572 34.6784 96.8754 34.4927 96.9448 34.3238C97.0143 34.155 97.1318 34.0107 97.2827 33.9091C97.4335 33.8076 97.6109 33.7534 97.7923 33.7534C98.0356 33.7534 98.2689 33.8508 98.441 34.0241C98.613 34.1973 98.7097 34.4324 98.7097 34.6774Z" fill="#263238"/>
<path d="M101.365 34.6774C101.365 34.8602 101.312 35.0388 101.211 35.1908C101.11 35.3427 100.967 35.4611 100.799 35.5311C100.632 35.601 100.447 35.6193 100.269 35.5837C100.091 35.548 99.9277 35.46 99.7994 35.3308C99.6711 35.2016 99.5838 35.0369 99.5484 34.8577C99.513 34.6784 99.5312 34.4927 99.6006 34.3238C99.67 34.155 99.7876 34.0107 99.9384 33.9091C100.089 33.8076 100.267 33.7534 100.448 33.7534C100.691 33.7534 100.925 33.8508 101.097 34.0241C101.269 34.1973 101.365 34.4324 101.365 34.6774Z" fill="#263238"/>
<path d="M209.188 38.2856C209.188 38.3503 182.788 38.4058 150.227 38.4058C117.666 38.4058 91.2744 38.3457 91.2744 38.2856C91.2744 38.2256 117.671 38.1655 150.241 38.1655C182.811 38.1655 209.188 38.2163 209.188 38.2856Z" fill="#263238"/>
<path d="M18.3102 178.595L20.7916 187.572C21.4741 190.01 23.0221 192.11 25.1414 193.472C27.2607 194.835 29.8033 195.366 32.2858 194.964C32.2858 194.964 36.9825 201.709 38.9869 202.818L40.7941 217.2H51.5131L52.3616 211.374C60.0657 214.632 68.3928 216.124 76.7398 215.74C90.3117 215.015 93.5637 211.009 93.5637 211.009L95.1873 217.2H107.296L109.287 201.363C109.287 201.363 124.102 188.076 120.295 172.603C120.295 172.603 130.954 165.271 127.34 154.83L125.17 153.846C125.17 153.846 121.735 160.032 118.121 161.307C118.121 161.307 108.397 129.817 71.7953 132.368C71.7953 132.368 59.581 131.822 48.0135 137.279C48.0135 137.279 35.1708 130.547 25.6076 135.458C25.6076 135.458 25.4287 146.546 30.8456 152.936C30.8456 152.936 26.1488 163.493 25.8002 165.678L24.4013 166.241C22.0533 167.183 20.133 168.965 19.0089 171.244C17.8848 173.524 17.636 176.142 18.3102 178.595Z" fill="#1B755E"/>
<path d="M44.2021 165.068C44.2021 165.665 44.0264 166.248 43.6973 166.744C43.3682 167.24 42.9005 167.627 42.3532 167.855C41.8059 168.084 41.2037 168.143 40.6227 168.027C40.0417 167.911 39.508 167.623 39.0892 167.201C38.6703 166.779 38.385 166.242 38.2695 165.657C38.1539 165.071 38.2132 164.465 38.4399 163.914C38.6666 163.362 39.0505 162.891 39.543 162.56C40.0356 162.228 40.6146 162.051 41.207 162.051C42.0014 162.051 42.7632 162.369 43.3249 162.935C43.8865 163.501 44.2021 164.268 44.2021 165.068Z" fill="#263238"/>
<g opacity="0.6">
<path d="M57.9985 140.36L59.3424 144.158C59.3424 144.158 75.6297 139.275 86.1286 144.158L87.6101 140.36C87.6101 140.36 74.8224 134.396 57.9985 140.36Z" fill="black"/>
</g>
<path d="M88.9313 145.9C88.8281 145.848 88.7285 145.789 88.6332 145.724C88.4405 145.599 88.1516 145.428 87.7801 145.211C86.7226 144.606 85.6126 144.099 84.4639 143.696C82.7599 143.102 80.9978 142.693 79.2076 142.476C77.0128 142.218 74.8013 142.135 72.5936 142.227C70.3829 142.29 68.1769 142.467 65.9842 142.758C64.1954 142.99 62.4343 143.403 60.7279 143.992C59.5789 144.391 58.4751 144.911 57.4347 145.544C56.6962 146.006 56.3201 146.288 56.3018 146.265C56.3853 146.183 56.4759 146.109 56.5724 146.043C56.8317 145.835 57.1028 145.642 57.3842 145.465C58.415 144.797 59.5184 144.25 60.6729 143.834C62.3825 143.217 64.1521 142.784 65.9521 142.541C68.153 142.239 70.3686 142.059 72.589 142C74.8079 141.907 77.0307 141.997 79.2351 142.268C81.0389 142.5 82.8122 142.929 84.5235 143.548C85.673 143.97 86.779 144.504 87.8259 145.142C88.1974 145.373 88.4772 145.562 88.6561 145.696C88.753 145.757 88.845 145.825 88.9313 145.9Z" fill="#263238"/>
<g opacity="0.2">
<path d="M25.1628 174.604C24.9902 174.134 24.716 173.71 24.3602 173.361C24.1797 173.189 23.9531 173.074 23.7086 173.031C23.464 172.987 23.2122 173.017 22.9842 173.116C22.6361 173.394 22.3933 173.784 22.2962 174.22C21.6916 176.97 22.1666 179.849 23.6217 182.254C23.7201 182.423 23.8527 182.568 24.0108 182.681C24.1689 182.794 24.3489 182.872 24.539 182.91C25.3601 183.054 25.7912 182.301 25.993 181.617C26.6856 179.311 26.1444 176.803 25.1628 174.604Z" fill="black"/>
</g>
<path d="M31.74 182.028C31.7169 181.799 31.7169 181.569 31.74 181.34C31.7551 181.071 31.7551 180.801 31.74 180.531C31.74 180.217 31.74 179.857 31.74 179.459C31.74 179.062 31.6987 178.632 31.6391 178.17C31.5794 177.708 31.506 177.219 31.4189 176.701C30.999 174.468 30.1833 172.328 29.0109 170.386C28.7311 169.924 28.4788 169.517 28.1991 169.148C27.9193 168.778 27.667 168.427 27.4147 168.117C27.1625 167.808 26.924 167.549 26.7176 167.313C26.5112 167.078 26.3231 166.884 26.1672 166.727C25.9999 166.573 25.8464 166.404 25.7085 166.223C25.8985 166.353 26.0766 166.5 26.2405 166.662C26.4444 166.838 26.6389 167.024 26.8231 167.221C27.0804 167.471 27.3238 167.734 27.5523 168.011C27.8138 168.311 28.0936 168.644 28.3688 169.027C28.644 169.411 28.9192 169.827 29.2081 170.27C29.8037 171.244 30.3133 172.269 30.7309 173.333C31.1315 174.409 31.4384 175.517 31.6482 176.646C31.7262 177.168 31.8134 177.662 31.8455 178.134C31.8776 178.605 31.9097 179.058 31.9188 179.436C31.928 179.815 31.9188 180.199 31.9188 180.517C31.9139 180.788 31.894 181.058 31.8592 181.326C31.8384 181.563 31.7985 181.798 31.74 182.028Z" fill="#263238"/>
<path d="M35.0285 175.56C34.9826 175.56 34.8083 174.798 34.2992 173.629C33.9994 172.948 33.6483 172.292 33.2488 171.665C32.7489 170.915 32.1874 170.209 31.5701 169.554C30.9372 168.903 30.2497 168.308 29.5153 167.775C28.9113 167.347 28.2748 166.967 27.6118 166.639C26.4789 166.08 25.7129 165.872 25.7313 165.826C25.9147 165.844 26.095 165.886 26.2679 165.95C26.4787 166.006 26.6856 166.075 26.8871 166.158C27.159 166.253 27.4254 166.362 27.6852 166.486C28.3687 166.798 29.024 167.169 29.6437 167.595C30.397 168.125 31.0988 168.725 31.7398 169.388C32.3724 170.061 32.9392 170.795 33.4323 171.578C33.8314 172.217 34.1736 172.891 34.4551 173.592C34.5835 173.888 34.6661 174.169 34.7487 174.41C34.8198 174.615 34.878 174.825 34.923 175.038C34.9801 175.207 35.0156 175.382 35.0285 175.56Z" fill="#263238"/>
<path d="M22.5481 174.174C22.5287 174.09 22.533 174.002 22.5605 173.921C22.5881 173.839 22.6378 173.767 22.704 173.712C22.8511 173.565 23.0436 173.472 23.2498 173.449C23.387 173.435 23.5254 173.45 23.6569 173.491C23.7885 173.532 23.9105 173.599 24.0158 173.689C24.4889 174.181 24.8421 174.778 25.0478 175.431C25.6722 176.962 25.9841 178.604 25.9651 180.259C26.0156 180.944 25.8908 181.631 25.6028 182.254C25.4862 182.463 25.3105 182.632 25.0981 182.74C24.8857 182.848 24.6462 182.89 24.4103 182.86C24.0708 182.795 23.9516 182.601 23.9791 182.606C24.1186 182.692 24.2751 182.747 24.4378 182.767C24.6495 182.777 24.8595 182.726 25.0432 182.62C25.2269 182.513 25.3765 182.356 25.4744 182.167C25.7251 181.564 25.8244 180.909 25.7633 180.259C25.7603 179.448 25.6819 178.639 25.5294 177.842C25.38 177.046 25.159 176.265 24.8689 175.509C24.6812 174.884 24.3603 174.307 23.9287 173.818C23.7758 173.674 23.5761 173.591 23.3668 173.584C23.1575 173.577 22.9529 173.647 22.7912 173.781C22.6707 173.883 22.5856 174.021 22.5481 174.174Z" fill="#263238"/>
<path d="M45.6008 176.304C45.6008 176.304 45.6742 176.391 45.7567 176.581C45.8623 176.849 45.9303 177.13 45.9586 177.417C46.0144 177.895 45.9726 178.38 45.8357 178.841C45.6989 179.303 45.4699 179.731 45.1628 180.1C44.8557 180.469 44.477 180.771 44.0499 180.987C43.6228 181.204 43.1563 181.33 42.6791 181.358C42.3935 181.38 42.1063 181.362 41.826 181.303C41.6287 181.256 41.5278 181.215 41.5278 181.196C41.905 181.222 42.2835 181.222 42.6607 181.196C43.5632 181.099 44.3932 180.654 44.9765 179.953C45.5597 179.253 45.8509 178.352 45.7888 177.44C45.7492 177.058 45.6864 176.678 45.6008 176.304Z" fill="#263238"/>
<path d="M43.904 157.704C42.9572 157.316 41.9641 157.056 40.9501 156.928C39.9291 156.879 38.9063 156.969 37.9092 157.196C38.169 157.029 38.4589 156.916 38.7623 156.863C39.4836 156.685 40.2285 156.626 40.9685 156.687C41.7087 156.75 42.4338 156.934 43.115 157.233C43.4048 157.339 43.6724 157.499 43.904 157.704Z" fill="#263238"/>
<path d="M94.4075 137.768L94.2928 137.731L93.958 137.602L92.6783 137.089L91.761 136.71C91.4216 136.576 91.0454 136.456 90.6464 136.318C89.8392 136.05 88.9402 135.694 87.8944 135.431L86.2799 134.969C85.7203 134.816 85.1241 134.705 84.5094 134.567C83.294 134.262 81.9638 134.077 80.5741 133.846C77.5336 133.444 74.4659 133.29 71.4008 133.384C68.3434 133.517 65.3018 133.899 62.3054 134.525C60.9294 134.853 59.6222 135.14 58.4297 135.532C57.8334 135.717 57.2417 135.87 56.6959 136.068L55.1181 136.641C54.1044 136.978 53.233 137.399 52.4486 137.727C52.0588 137.898 51.6918 138.046 51.3662 138.189L50.4764 138.651L49.238 139.261L48.9169 139.413C48.8818 139.435 48.8429 139.451 48.8022 139.459C48.8022 139.459 48.8344 139.459 48.9032 139.395L49.215 139.219L50.4351 138.568L51.3157 138.106C51.6414 137.944 52.0083 137.787 52.3936 137.611C53.1733 137.274 54.0448 136.84 55.0585 136.489L56.6363 135.902C57.1867 135.699 57.7738 135.541 58.3746 135.347C59.5717 134.946 60.8835 134.654 62.2595 134.317C65.2667 133.677 68.3209 133.286 71.3916 133.148C74.4576 133.062 77.5256 133.227 80.5649 133.643C81.9638 133.878 83.294 134.072 84.5186 134.382C85.1286 134.53 85.7295 134.645 86.2891 134.807L87.9036 135.269C88.9402 135.542 89.8391 135.911 90.6556 136.193C91.0546 136.336 91.4307 136.466 91.7701 136.599L92.6875 137.001L93.9488 137.56L94.2745 137.713C94.3754 137.745 94.4121 137.764 94.4075 137.768Z" fill="white"/>
<path d="M99.8613 140.831C99.3621 140.752 98.8779 140.596 98.4256 140.369C97.9424 140.212 97.4872 139.978 97.0771 139.676C97.5777 139.756 98.0633 139.912 98.5174 140.138C98.9984 140.298 99.4518 140.531 99.8613 140.831Z" fill="white"/>
<path d="M23.6217 168.588C23.6217 168.63 23.2043 168.806 22.5713 169.207C20.9186 170.267 19.6905 171.88 19.1038 173.763C18.8837 174.483 18.8286 174.95 18.7827 174.946C18.7638 174.835 18.7638 174.723 18.7827 174.613C18.8085 174.308 18.8622 174.007 18.9433 173.712C19.1937 172.739 19.6353 171.826 20.2419 171.028C20.8485 170.23 21.6078 169.562 22.475 169.064C22.7344 168.911 23.0078 168.782 23.2914 168.681C23.3953 168.631 23.5071 168.599 23.6217 168.588Z" fill="white"/>
<path d="M51.7976 214.502C51.7976 214.502 51.715 214.391 51.5224 214.243C51.2341 214.04 50.8807 213.953 50.5316 213.999C50.2639 214.027 50.0064 214.118 49.7795 214.264C49.5526 214.41 49.3626 214.607 49.2244 214.839C48.8815 215.466 48.7224 216.177 48.7658 216.891H48.5548C48.5918 216.527 48.5507 216.16 48.4344 215.814C48.3181 215.468 48.1292 215.152 47.8805 214.886C47.6033 214.597 47.2468 214.399 46.8569 214.317C46.467 214.235 46.0615 214.272 45.6927 214.424C45.4564 214.525 45.2488 214.684 45.0887 214.887C44.9286 215.089 44.8209 215.329 44.7754 215.583C44.7191 215.821 44.7201 216.069 44.7783 216.306C44.8366 216.543 44.9504 216.762 45.1102 216.946L44.9221 217.062C44.6785 216.179 44.2341 215.366 43.6241 214.687C43.3834 214.431 43.0817 214.242 42.7477 214.137C42.4137 214.031 42.0586 214.014 41.7161 214.086C41.4953 214.149 41.2913 214.261 41.1191 214.414C40.9468 214.567 40.8107 214.756 40.7208 214.969C40.6662 215.129 40.6323 215.295 40.6199 215.463C40.5749 215.292 40.5861 215.11 40.652 214.946C40.7338 214.711 40.8689 214.499 41.0465 214.327C41.2241 214.154 41.4392 214.026 41.6748 213.952C42.043 213.861 42.4285 213.867 42.7936 213.971C43.1587 214.074 43.4907 214.272 43.7571 214.544C44.4023 215.235 44.874 216.071 45.1331 216.983L45.3212 217.501L44.9497 217.094C44.7631 216.884 44.6294 216.633 44.5599 216.36C44.4905 216.087 44.4873 215.802 44.5506 215.528C44.605 215.234 44.7311 214.957 44.9176 214.724C45.1042 214.491 45.3453 214.309 45.6193 214.193C46.0329 214.022 46.4876 213.981 46.9249 214.073C47.3622 214.165 47.7622 214.387 48.0732 214.71C48.3415 215.002 48.5442 215.349 48.6677 215.727C48.7911 216.104 48.8324 216.505 48.7887 216.9H48.5777C48.5391 216.15 48.7192 215.405 49.096 214.756C49.2643 214.487 49.4958 214.263 49.7703 214.105C50.0077 213.979 50.2685 213.903 50.5362 213.883C50.9113 213.848 51.2851 213.963 51.5774 214.202C51.6741 214.282 51.7497 214.385 51.7976 214.502Z" fill="#263238"/>
<path d="M115.708 213.615L114.919 216.96C114.919 216.96 109.484 224.07 107.81 223.719C106.709 223.492 108.062 221.64 110.103 216.239L110.562 214.012L115.708 213.615Z" fill="#455A64"/>
<path d="M107.59 222.684C107.655 222.806 107.756 222.904 107.879 222.966C108.049 223.04 108.236 223.066 108.42 223.039C108.604 223.013 108.777 222.937 108.92 222.818C109.871 222.014 110.773 221.153 111.621 220.24C112.626 219.178 113.456 218.152 114.066 217.399L114.759 216.498C114.828 216.41 114.892 216.332 114.947 216.253C114.968 216.223 114.993 216.195 115.02 216.17C114.998 216.2 114.974 216.228 114.947 216.253L114.772 216.512C114.621 216.734 114.392 217.048 114.103 217.436C113.344 218.434 112.533 219.39 111.672 220.3C110.815 221.222 109.896 222.082 108.92 222.874C108.738 223.002 108.526 223.08 108.305 223.1C108.138 223.109 107.972 223.073 107.824 222.994C107.729 222.945 107.65 222.872 107.594 222.781C107.588 222.749 107.586 222.717 107.59 222.684Z" fill="#263238"/>
<path d="M108.355 220.374C108.501 220.316 108.66 220.298 108.814 220.323C109.178 220.359 109.528 220.481 109.837 220.679C110.157 220.864 110.416 221.141 110.58 221.474C110.654 221.608 110.695 221.759 110.699 221.913C110.699 221.913 110.649 221.746 110.52 221.506C110.345 221.199 110.092 220.944 109.787 220.767C109.489 220.574 109.155 220.447 108.805 220.393C108.656 220.379 108.506 220.372 108.355 220.374Z" fill="#263238"/>
<path d="M113.502 218.72C113.47 218.671 113.446 218.616 113.433 218.558C113.388 218.407 113.353 218.253 113.328 218.096C113.251 217.574 113.339 217.041 113.58 216.572C113.818 216.101 114.205 215.724 114.681 215.5C114.826 215.431 114.98 215.384 115.139 215.361C115.196 215.352 115.253 215.352 115.309 215.361C115.106 215.415 114.908 215.486 114.717 215.574C114.269 215.808 113.905 216.178 113.676 216.632C113.446 217.085 113.352 217.595 113.406 218.101C113.442 218.48 113.516 218.716 113.502 218.72Z" fill="#263238"/>
<path d="M115.364 214.183C115.364 214.183 115.263 214.645 115.162 215.25C115.12 215.614 115.024 215.969 114.878 216.304C114.878 216.304 114.965 215.842 115.066 215.232C115.11 214.869 115.21 214.515 115.364 214.183Z" fill="#263238"/>
<path d="M110.03 216.71C110.258 216.647 110.499 216.647 110.727 216.71C110.961 216.747 111.179 216.851 111.355 217.011C111.355 217.038 111.071 216.891 110.704 216.807C110.337 216.724 110.034 216.743 110.03 216.71Z" fill="#263238"/>
<path d="M109.919 217.283C110.109 217.215 110.317 217.215 110.507 217.283C110.707 217.313 110.889 217.415 111.02 217.57C111.02 217.593 110.786 217.45 110.484 217.38C110.181 217.311 109.924 217.316 109.919 217.283Z" fill="#263238"/>
<path d="M109.484 218.004C109.574 217.948 109.675 217.912 109.781 217.899C109.886 217.885 109.993 217.894 110.094 217.925C110.199 217.941 110.299 217.979 110.388 218.037C110.476 218.095 110.551 218.172 110.608 218.263C110.439 218.16 110.259 218.08 110.071 218.023C109.877 217.992 109.68 217.986 109.484 218.004Z" fill="#263238"/>
<path d="M110.406 216.47C110.406 216.47 110.653 216.405 111.043 216.253C111.269 216.162 111.488 216.055 111.699 215.934C111.814 215.865 111.938 215.786 112.057 215.703C112.176 215.62 112.291 215.5 112.286 215.37C112.282 215.241 112.121 215.167 111.997 215.199C111.868 215.244 111.753 215.322 111.663 215.426C111.461 215.615 111.291 215.795 111.153 215.952C110.874 216.267 110.722 216.474 110.695 216.465C110.718 216.409 110.749 216.356 110.786 216.308C110.851 216.211 110.952 216.073 111.085 215.906C111.242 215.716 111.409 215.534 111.585 215.361C111.685 215.244 111.815 215.156 111.961 215.107C112.004 215.093 112.051 215.089 112.096 215.095C112.142 215.101 112.185 215.117 112.224 215.141C112.263 215.166 112.296 215.199 112.321 215.237C112.346 215.276 112.362 215.32 112.369 215.366C112.36 215.451 112.331 215.533 112.285 215.605C112.239 215.678 112.176 215.738 112.103 215.781C111.982 215.866 111.856 215.943 111.727 216.012C111.511 216.134 111.286 216.236 111.052 216.317C110.895 216.373 110.734 216.418 110.571 216.451C110.47 216.475 110.406 216.479 110.406 216.47Z" fill="#263238"/>
<path d="M110.69 216.401C110.646 216.199 110.613 215.996 110.589 215.791C110.555 215.573 110.493 215.36 110.406 215.158C110.354 215.041 110.286 214.933 110.204 214.835C110.122 214.742 109.993 214.659 109.892 214.719C109.791 214.779 109.778 214.932 109.791 215.056C109.812 215.182 109.847 215.304 109.897 215.421C109.987 215.621 110.106 215.807 110.25 215.971C110.502 216.253 110.709 216.387 110.709 216.401C110.709 216.415 110.654 216.401 110.567 216.318C110.442 216.23 110.325 216.131 110.218 216.022C110.06 215.856 109.93 215.666 109.833 215.458C109.777 215.333 109.737 215.201 109.713 215.066C109.694 214.987 109.699 214.904 109.725 214.828C109.752 214.752 109.801 214.685 109.865 214.636C109.94 214.606 110.024 214.603 110.101 214.628C110.179 214.652 110.246 214.702 110.291 214.77C110.38 214.876 110.452 214.994 110.507 215.121C110.594 215.332 110.651 215.555 110.677 215.782C110.7 215.971 110.709 216.128 110.713 216.244C110.713 216.297 110.705 216.35 110.69 216.401Z" fill="#263238"/>
<path d="M141.728 215.167L141.751 210.704L133.472 210.603L133.357 217.14L133.871 217.181C136.164 217.338 145.517 217.81 147.053 217.362C148.769 216.853 141.728 215.167 141.728 215.167Z" fill="#455A64"/>
<path d="M133.243 216.941H133.385L133.798 216.974L135.302 217.057C136.577 217.122 138.338 217.182 140.283 217.209C142.228 217.237 143.989 217.209 145.264 217.209L146.773 217.168H145.264C143.994 217.168 142.233 217.168 140.288 217.168C138.343 217.168 136.586 217.089 135.311 217.048L133.802 216.992H133.394L133.243 216.941Z" fill="#263238"/>
<path d="M144.421 217.311C144.492 217.061 144.589 216.819 144.71 216.59C144.863 216.38 145.038 216.188 145.233 216.017C144.973 216.107 144.757 216.292 144.627 216.535C144.465 216.759 144.392 217.035 144.421 217.311Z" fill="#263238"/>
<path d="M141.99 216.031C142.013 216.031 142.132 215.902 142.251 215.712C142.37 215.523 142.458 215.356 142.435 215.338C142.412 215.32 142.292 215.467 142.169 215.657C142.045 215.846 141.962 216.013 141.99 216.031Z" fill="#263238"/>
<path d="M141.32 215.661C141.32 215.684 141.471 215.597 141.613 215.472C141.756 215.347 141.861 215.222 141.843 215.199C141.824 215.176 141.691 215.269 141.549 215.393C141.407 215.518 141.302 215.643 141.32 215.661Z" fill="#263238"/>
<path d="M140.907 214.867C141.044 214.921 141.192 214.943 141.338 214.932C141.492 214.953 141.649 214.939 141.797 214.89C141.651 214.834 141.494 214.813 141.338 214.83C141.194 214.811 141.047 214.823 140.907 214.867Z" fill="#263238"/>
<path d="M140.765 214.312C140.909 214.406 141.076 214.457 141.247 214.46C141.416 214.491 141.591 214.469 141.747 214.396C141.589 214.373 141.429 214.364 141.27 214.368C141.104 214.333 140.935 214.314 140.765 214.312Z" fill="#263238"/>
<path d="M142.279 215.292C142.455 215.321 142.635 215.321 142.811 215.292C143.004 215.274 143.195 215.235 143.38 215.176C143.493 215.145 143.602 215.1 143.705 215.042C143.77 215.008 143.819 214.95 143.843 214.881C143.852 214.841 143.85 214.799 143.836 214.76C143.822 214.722 143.797 214.688 143.765 214.663C143.562 214.56 143.33 214.531 143.109 214.581C142.887 214.63 142.689 214.756 142.549 214.936C142.465 215.041 142.404 215.162 142.371 215.292C142.358 215.339 142.358 215.388 142.371 215.435C142.426 215.268 142.509 215.111 142.618 214.973C142.74 214.834 142.899 214.733 143.077 214.682C143.181 214.646 143.291 214.633 143.401 214.641C143.51 214.65 143.617 214.681 143.714 214.733C143.797 214.797 143.765 214.894 143.669 214.95C143.573 215.003 143.471 215.045 143.366 215.075C143.186 215.136 143.002 215.182 142.815 215.213C142.481 215.292 142.279 215.292 142.279 215.292Z" fill="#263238"/>
<path d="M142.416 215.333C142.483 215.221 142.506 215.088 142.48 214.959C142.467 214.819 142.42 214.684 142.343 214.566C142.297 214.483 142.231 214.414 142.151 214.364C142.07 214.315 141.978 214.287 141.884 214.285C141.83 214.297 141.782 214.329 141.75 214.376C141.719 214.422 141.706 214.479 141.714 214.534C141.727 214.619 141.756 214.701 141.802 214.774C141.87 214.894 141.953 215.004 142.049 215.102C142.131 215.199 142.235 215.275 142.352 215.324C142.352 215.324 142.246 215.227 142.104 215.052C142.019 214.953 141.945 214.844 141.884 214.728C141.811 214.613 141.765 214.409 141.884 214.386C142.003 214.363 142.155 214.511 142.233 214.617C142.306 214.722 142.356 214.842 142.379 214.968C142.401 215.089 142.414 215.211 142.416 215.333Z" fill="#263238"/>
<path d="M133.445 214.654C133.445 214.654 133.679 214.654 134.055 214.682C134.543 214.743 135.005 214.941 135.386 215.255C135.766 215.569 136.051 215.986 136.206 216.456C136.33 216.817 136.339 217.057 136.357 217.057C136.366 217 136.366 216.943 136.357 216.886C136.348 216.729 136.32 216.574 136.275 216.424C136.133 215.931 135.845 215.493 135.45 215.168C135.056 214.843 134.572 214.646 134.064 214.604C133.911 214.589 133.758 214.589 133.605 214.604C133.549 214.61 133.495 214.628 133.445 214.654Z" fill="#263238"/>
<path d="M134.348 211.189C134.281 211.758 134.249 212.331 134.252 212.903C134.219 213.476 134.219 214.05 134.252 214.622C134.316 214.052 134.347 213.478 134.344 212.903C134.377 212.333 134.379 211.76 134.348 211.189Z" fill="#263238"/>
<path d="M137.421 216.304C137.818 216.399 138.225 216.444 138.632 216.438C139.039 216.466 139.448 216.438 139.848 216.355C139.848 216.327 139.302 216.355 138.637 216.355C137.972 216.355 137.426 216.272 137.421 216.304Z" fill="#263238"/>
<path d="M135.798 216.281C135.775 216.281 135.839 216.396 135.894 216.521C135.949 216.646 135.977 216.756 136.004 216.756C136.032 216.756 136.05 216.627 136.004 216.479C135.958 216.331 135.816 216.257 135.798 216.281Z" fill="#263238"/>
<path d="M135.192 215.504C135.192 215.504 135.224 215.611 135.312 215.699C135.399 215.786 135.481 215.842 135.5 215.823C135.518 215.805 135.468 215.717 135.385 215.629C135.302 215.541 135.215 215.481 135.192 215.504Z" fill="#263238"/>
<path d="M134.321 215.14C134.321 215.167 134.435 215.167 134.559 215.214C134.683 215.26 134.766 215.325 134.789 215.306C134.812 215.288 134.743 215.172 134.591 215.117C134.44 215.061 134.312 215.117 134.321 215.14Z" fill="#263238"/>
<path d="M133.697 214.969C133.697 214.992 133.734 215.038 133.803 215.066C133.872 215.094 133.936 215.094 133.945 215.066C133.954 215.038 133.908 214.996 133.844 214.969C133.78 214.941 133.711 214.941 133.697 214.969Z" fill="#263238"/>
<path d="M147.338 129.711L144.155 213.476L131.229 213.749L133.376 141.173L118.845 214.303H106.558L122.386 129.882L147.338 129.711Z" fill="#263238"/>
<path d="M136.352 132.76C136.343 133.226 136.293 133.689 136.206 134.146C136.086 134.992 135.903 136.165 135.687 137.45C135.605 138.064 135.482 138.672 135.32 139.27C135.174 139.772 134.88 140.219 134.477 140.55C134.205 140.771 133.881 140.916 133.536 140.97C133.413 141.002 133.284 141.002 133.16 140.97C133.605 140.905 134.024 140.718 134.371 140.429C134.732 140.104 134.992 139.681 135.119 139.21C135.267 138.619 135.381 138.021 135.463 137.417C135.678 136.128 135.885 134.964 136.045 134.123C136.111 133.661 136.214 133.206 136.352 132.76Z" fill="#455A64"/>
<path d="M133.665 133.162C133.692 133.162 133.587 133.319 133.665 133.536C133.68 133.595 133.708 133.651 133.745 133.699C133.782 133.747 133.828 133.788 133.88 133.818C133.947 133.842 134.018 133.847 134.087 133.833C134.155 133.819 134.219 133.787 134.271 133.74C134.324 133.692 134.362 133.632 134.383 133.564C134.404 133.497 134.406 133.425 134.389 133.356C134.368 133.299 134.335 133.248 134.292 133.205C134.25 133.162 134.198 133.128 134.142 133.107C133.931 133.014 133.784 133.107 133.77 133.074C133.757 133.042 133.89 132.885 134.192 132.95C134.279 132.971 134.36 133.012 134.428 133.07C134.496 133.127 134.551 133.2 134.587 133.282C134.625 133.392 134.629 133.51 134.597 133.622C134.566 133.733 134.502 133.833 134.412 133.906C134.329 133.985 134.224 134.037 134.11 134.053C133.997 134.07 133.882 134.051 133.779 133.998C133.703 133.952 133.638 133.888 133.591 133.811C133.543 133.735 133.513 133.649 133.504 133.559C133.472 133.254 133.656 133.134 133.665 133.162Z" fill="#455A64"/>
<path d="M126.725 134.359C126.574 133.983 126.517 133.576 126.56 133.172C126.604 132.769 126.745 132.383 126.973 132.049C127.033 132.077 126.845 132.571 126.785 133.204C126.725 133.837 126.79 134.34 126.725 134.359Z" fill="#455A64"/>
<path d="M128.28 134.257C128.091 133.878 128.025 133.447 128.092 133.028C128.086 132.602 128.211 132.184 128.45 131.832C128.509 131.832 128.363 132.381 128.321 133.042C128.329 133.447 128.315 133.853 128.28 134.257Z" fill="#455A64"/>
<path d="M141.636 134.599C141.624 134.179 141.649 133.758 141.71 133.342C141.694 132.921 141.712 132.499 141.765 132.081C141.937 132.481 141.996 132.92 141.935 133.352C141.95 133.787 141.847 134.218 141.636 134.599Z" fill="#455A64"/>
<path d="M143.325 134.507C143.26 134.479 143.462 133.929 143.508 133.227C143.554 132.525 143.435 131.956 143.508 131.938C143.692 132.347 143.773 132.796 143.742 133.244C143.712 133.693 143.571 134.126 143.334 134.507H143.325Z" fill="#455A64"/>
<path d="M129.344 94.8625L137.325 94.2203C137.376 93.2963 137.325 89.6558 137.325 89.6558C137.325 89.6558 140.646 89.1337 140.687 85.7935C140.728 82.4532 140.15 74.7748 140.15 74.7748C138.261 73.9501 136.186 73.6502 134.142 73.9061C132.098 74.1621 130.16 74.9645 128.528 76.2301L128.037 76.6135L129.344 94.8625Z" fill="#FFBE9D"/>
<path d="M137.297 89.6278C135.765 89.6591 134.259 89.2279 132.972 88.3896C132.972 88.3896 133.995 90.7967 137.307 90.4964L137.297 89.6278Z" fill="#EB996E"/>
<path d="M138.825 80.0139C138.825 80.1364 138.777 80.2539 138.691 80.3406C138.605 80.4272 138.488 80.4759 138.366 80.4759C138.306 80.4803 138.245 80.4726 138.188 80.4534C138.131 80.4342 138.078 80.4037 138.032 80.3638C137.987 80.3239 137.949 80.2753 137.922 80.2208C137.895 80.1663 137.88 80.1069 137.875 80.0462C137.875 79.9237 137.924 79.8062 138.01 79.7195C138.096 79.6329 138.213 79.5842 138.334 79.5842C138.394 79.5798 138.455 79.5875 138.512 79.6067C138.57 79.6259 138.623 79.6564 138.668 79.6963C138.714 79.7362 138.751 79.7848 138.778 79.8393C138.805 79.8938 138.821 79.9532 138.825 80.0139Z" fill="#263238"/>
<path d="M139.49 79.464C139.43 79.5241 139.072 79.2561 138.572 79.2561C138.073 79.2561 137.687 79.5149 137.632 79.4548C137.577 79.3947 137.664 79.3116 137.829 79.1915C138.051 79.0399 138.314 78.9593 138.582 78.9605C138.847 78.9594 139.106 79.0436 139.32 79.2007C139.467 79.3347 139.517 79.464 139.49 79.464Z" fill="#263238"/>
<path d="M133.674 80.134C133.674 80.2565 133.626 80.374 133.54 80.4607C133.454 80.5473 133.337 80.596 133.215 80.596C133.155 80.6004 133.095 80.5928 133.037 80.5735C132.98 80.5543 132.927 80.5238 132.881 80.4839C132.836 80.444 132.798 80.3954 132.772 80.3409C132.745 80.2864 132.729 80.2271 132.725 80.1663C132.725 80.0438 132.773 79.9263 132.859 79.8396C132.945 79.753 133.062 79.7043 133.183 79.7043C133.244 79.6999 133.304 79.7076 133.361 79.7268C133.419 79.746 133.472 79.7765 133.517 79.8164C133.563 79.8564 133.6 79.905 133.627 79.9595C133.654 80.014 133.67 80.0733 133.674 80.134Z" fill="#263238"/>
<path d="M134.477 79.57C134.417 79.6347 134.059 79.3668 133.559 79.3668C133.059 79.3668 132.674 79.6255 132.619 79.5608C132.564 79.4961 132.651 79.4222 132.816 79.3021C133.036 79.1463 133.3 79.0654 133.568 79.0711C133.834 79.0701 134.092 79.1542 134.307 79.3113C134.454 79.4314 134.509 79.5423 134.477 79.57Z" fill="#263238"/>
<path d="M136.33 83.3816C136.598 83.2977 136.875 83.2465 137.155 83.2292C137.288 83.2292 137.412 83.1922 137.43 83.0998C137.442 82.9645 137.412 82.8288 137.343 82.7117C137.224 82.4037 137.096 82.0711 136.958 81.7138C136.602 80.8684 136.313 79.9955 136.096 79.1035C136.519 79.9191 136.878 80.7672 137.169 81.6399C137.297 81.9864 137.417 82.3237 137.536 82.6424C137.617 82.802 137.64 82.9852 137.6 83.1599C137.581 83.2066 137.552 83.2483 137.515 83.2819C137.477 83.3155 137.433 83.3402 137.385 83.3539C137.313 83.3747 137.239 83.3856 137.164 83.3863C136.887 83.4196 136.607 83.4181 136.33 83.3816Z" fill="#263238"/>
<path d="M134.848 83.7374C134.931 83.7374 134.931 84.2872 135.403 84.6845C135.876 85.0818 136.467 85.0218 136.472 85.0957C136.476 85.1696 136.339 85.2066 136.091 85.2112C135.768 85.2166 135.453 85.107 135.201 84.9017C134.952 84.7044 134.788 84.4183 134.743 84.1024C134.729 83.8714 134.789 83.7328 134.848 83.7374Z" fill="#263238"/>
<path d="M134.61 77.5604C134.559 77.699 134.05 77.6297 133.454 77.7036C132.858 77.7775 132.372 77.9439 132.289 77.8145C132.257 77.7544 132.339 77.6251 132.532 77.4911C132.793 77.3247 133.088 77.2203 133.395 77.1859C133.701 77.1515 134.012 77.1879 134.303 77.2924C134.523 77.3802 134.633 77.4911 134.61 77.5604Z" fill="#263238"/>
<path d="M139.302 77.99C139.214 78.1055 138.843 77.99 138.439 77.99C138.036 77.99 137.66 78.0686 137.577 77.9438C137.494 77.8191 137.577 77.7683 137.756 77.6574C137.964 77.5211 138.21 77.4548 138.458 77.468C138.705 77.4732 138.945 77.5538 139.146 77.699C139.292 77.8098 139.343 77.93 139.302 77.99Z" fill="#263238"/>
<path d="M128.427 80.083C128.372 80.0599 126.134 79.4038 126.221 81.6907C126.308 83.9776 128.555 83.4325 128.56 83.3678C128.565 83.3031 128.427 80.083 128.427 80.083Z" fill="#FFBE9D"/>
<path d="M127.854 82.5226C127.854 82.5226 127.817 82.5504 127.753 82.5827C127.657 82.622 127.55 82.622 127.454 82.5827C127.309 82.4912 127.19 82.3628 127.11 82.2103C127.029 82.0578 126.99 81.8867 126.996 81.7141C126.983 81.5171 127.014 81.3196 127.088 81.1366C127.107 81.0652 127.142 80.9993 127.192 80.9447C127.241 80.89 127.303 80.8481 127.372 80.8225C127.417 80.8095 127.466 80.8124 127.509 80.8309C127.552 80.8494 127.588 80.8823 127.61 80.9241C127.643 80.9888 127.61 81.035 127.643 81.0396C127.675 81.0442 127.688 80.998 127.67 80.9056C127.654 80.8486 127.62 80.7984 127.574 80.7624C127.509 80.7188 127.431 80.7007 127.354 80.7116C127.261 80.7333 127.176 80.7787 127.106 80.8435C127.036 80.9082 126.984 80.9901 126.955 81.0812C126.862 81.2818 126.821 81.5026 126.835 81.7234C126.83 81.9272 126.885 82.1279 126.994 82.2999C127.103 82.4718 127.26 82.6073 127.445 82.689C127.506 82.7051 127.57 82.7072 127.632 82.6952C127.694 82.6832 127.752 82.6574 127.803 82.6197C127.854 82.5781 127.863 82.5273 127.854 82.5226Z" fill="#EB996E"/>
<path d="M141.389 71.8872C141.147 71.4057 140.799 70.9863 140.371 70.6613C139.943 70.3363 139.448 70.1142 138.922 70.0121C138.396 69.9099 137.853 69.9305 137.336 70.0721C136.82 70.2138 136.342 70.4727 135.94 70.8292C135.688 70.3231 135.316 69.887 134.858 69.5592C134.4 69.2314 133.869 69.0218 133.311 68.9488C132.754 68.8758 132.187 68.9417 131.661 69.1407C131.135 69.3396 130.665 69.6656 130.293 70.09C129.656 70.8199 129.326 71.804 128.583 72.4C127.936 72.9313 127.064 73.1068 126.413 73.6289C126.054 73.9192 125.78 74.3038 125.624 74.7404C125.467 75.177 125.434 75.6486 125.526 76.1033C125.619 76.558 125.834 76.9782 126.148 77.3177C126.462 77.6571 126.864 77.9026 127.307 78.0271C127.144 78.3559 127.049 78.7146 127.028 79.0815C127.006 79.4484 127.059 79.8158 127.183 80.1615C127.307 80.5071 127.5 80.8238 127.749 81.0923C127.998 81.3607 128.299 81.5754 128.633 81.7231L128.963 81.5845C129.581 80.8767 129.976 80 130.099 79.0656C130.221 78.1313 130.065 77.1813 129.651 76.3362C129.691 76.3385 129.731 76.3385 129.771 76.3362C130.341 76.6569 131.01 76.7532 131.647 76.6064C132.284 76.4596 132.844 76.0803 133.22 75.5416C133.679 75.8659 134.222 76.0508 134.783 76.0746C135.343 76.0983 135.899 75.9599 136.384 75.6756C136.52 75.5714 136.677 75.4974 136.843 75.4584C137.053 75.4618 137.258 75.5242 137.435 75.6386C137.927 75.9067 138.488 76.0193 139.045 75.962C139.301 75.9303 139.546 75.8342 139.756 75.6824C139.966 75.5306 140.135 75.3281 140.246 75.0934H140.288C140.605 75.0205 140.896 74.8613 141.13 74.6333C141.364 74.4052 141.531 74.1169 141.613 73.7998C141.779 73.1564 141.698 72.474 141.389 71.8872Z" fill="#263238"/>
<path d="M146.425 112.007L146.718 96.946C144.063 94.3172 142.645 93.5318 138.948 93.0929L137.944 92.9774L137.627 90.4964L128.564 89.979L129.023 92.9266C127.711 92.982 126.619 93.3886 125.505 93.6057C121.982 94.2848 119.446 96.8674 118.744 99.256C118.162 101.219 114.442 115.777 114.442 115.777L113.685 120.171L122.005 117.131V120.295V131.919H147.232C147.319 129.147 146.425 112.007 146.425 112.007Z" fill="#1B755E"/>
<g opacity="0.2">
<path d="M146.425 112.007L146.718 96.946C144.063 94.3172 142.645 93.5318 138.948 93.0929L137.944 92.9774L137.627 90.4964L128.564 89.979L129.023 92.9266C127.711 92.982 126.619 93.3886 125.505 93.6057C121.982 94.2848 119.446 96.8674 118.744 99.256C118.162 101.219 114.442 115.777 114.442 115.777L113.685 120.171L122.005 117.131V120.295V131.919H147.232C147.319 129.147 146.425 112.007 146.425 112.007Z" fill="black"/>
</g>
<path d="M117.474 115.985L129.918 114.207L132.284 118.475L120.717 123.728C120.072 124.026 119.371 124.184 118.662 124.19C117.669 124.188 116.699 123.887 115.876 123.327C115.053 122.766 114.415 121.972 114.043 121.044L113.667 120.12L117.474 115.985Z" fill="#1B755E"/>
<g opacity="0.2">
<path d="M117.474 115.985L129.918 114.207L132.284 118.475L120.717 123.728C120.072 124.026 119.371 124.184 118.662 124.19C117.669 124.188 116.699 123.887 115.876 123.327C115.053 122.766 114.415 121.972 114.043 121.044L113.667 120.12L117.474 115.985Z" fill="black"/>
</g>
<path d="M142.902 94.0122C142.902 94.0122 146.42 95.218 147.897 98.6322C148.86 100.859 150.278 111.568 150.278 111.568L152.062 115.038C152.491 115.87 152.714 116.794 152.713 117.731V118.263C152.715 119.609 152.255 120.915 151.411 121.959C150.921 122.565 150.316 123.066 149.63 123.433C148.945 123.8 148.193 124.024 147.42 124.093C145.636 124.255 143.48 124.324 143.022 123.797C142.21 122.873 140.99 120.346 140.99 120.346L146.186 117.574L143.948 113.416L142.902 94.0122Z" fill="#1B755E"/>
<g opacity="0.2">
<path d="M142.902 94.0122C142.902 94.0122 146.42 95.218 147.897 98.6322C148.86 100.859 150.278 111.568 150.278 111.568L152.062 115.038C152.491 115.87 152.714 116.794 152.713 117.731V118.263C152.715 119.609 152.255 120.915 151.411 121.959C150.921 122.565 150.316 123.066 149.63 123.433C148.945 123.8 148.193 124.024 147.42 124.093C145.636 124.255 143.48 124.324 143.022 123.797C142.21 122.873 140.99 120.346 140.99 120.346L146.186 117.574L143.948 113.416L142.902 94.0122Z" fill="black"/>
</g>
<path d="M121.584 123.354C121.584 123.354 121.648 123.308 121.785 123.238L122.382 122.947L124.615 121.894L132.238 118.387L132.188 118.549L130.729 115.916L129.812 114.28L129.922 114.336L120.804 115.236L118.098 115.481L117.364 115.537C117.279 115.55 117.192 115.55 117.107 115.537C117.19 115.514 117.274 115.498 117.359 115.491L118.088 115.398L120.79 115.084L129.908 114.114H129.982L130.018 114.178L130.936 115.814L132.39 118.447L132.449 118.554L132.339 118.604L124.684 122.037L122.423 123.026L121.808 123.284C121.736 123.315 121.66 123.338 121.584 123.354Z" fill="#263238"/>
<path d="M123.794 114.747C123.73 114.747 123.68 112.506 123.68 109.743C123.68 106.98 123.73 104.74 123.794 104.74C123.859 104.74 123.909 106.98 123.909 109.743C123.909 112.506 123.84 114.747 123.794 114.747Z" fill="#263238"/>
<path d="M145.214 118.096C145.214 118.096 145.347 118.055 145.59 118.036C145.941 118.003 146.295 118.024 146.64 118.096C146.893 118.151 147.122 118.283 147.296 118.475C147.478 118.705 147.597 118.979 147.64 119.27C147.697 119.59 147.668 119.92 147.558 120.226C147.432 120.554 147.214 120.837 146.929 121.039C146.379 121.378 145.765 121.598 145.127 121.686C144.617 121.786 144.1 121.837 143.581 121.839C143.102 121.88 142.62 121.796 142.182 121.594C142.645 121.666 143.113 121.693 143.581 121.677C144.087 121.653 144.59 121.586 145.085 121.478C145.691 121.386 146.272 121.174 146.796 120.855C147.036 120.682 147.222 120.446 147.335 120.173C147.447 119.899 147.482 119.599 147.434 119.307C147.401 119.05 147.304 118.806 147.154 118.595C147.007 118.429 146.814 118.31 146.599 118.254C146.269 118.17 145.93 118.127 145.59 118.124C145.464 118.13 145.338 118.12 145.214 118.096Z" fill="#263238"/>
<path d="M147.278 124.153C146.981 124.244 146.67 124.28 146.361 124.26C145.627 124.283 144.897 124.162 144.209 123.904C143.83 123.759 143.47 123.565 143.141 123.326C142.873 123.124 142.649 122.869 142.48 122.578C142.309 122.322 142.199 122.029 142.159 121.723C142.196 121.723 142.315 122.037 142.618 122.49C142.795 122.75 143.015 122.977 143.269 123.16C143.59 123.376 143.935 123.553 144.297 123.687C144.96 123.935 145.658 124.074 146.365 124.098C146.67 124.094 146.975 124.113 147.278 124.153Z" fill="#263238"/>
<path d="M149.764 113.296C149.585 113.565 149.379 113.814 149.149 114.04C148.75 114.479 148.186 115.08 147.553 115.731C146.92 116.383 146.342 116.969 145.911 117.38C145.695 117.621 145.452 117.835 145.187 118.018C145.359 117.745 145.564 117.493 145.797 117.27C146.196 116.808 146.76 116.225 147.388 115.574C148.121 114.755 148.915 113.993 149.764 113.296Z" fill="#263238"/>
<path d="M144.095 110.959C143.98 110.01 143.942 109.054 143.98 108.099C143.942 107.142 143.98 106.185 144.095 105.234C144.21 106.185 144.248 107.142 144.21 108.099C144.248 109.054 144.21 110.01 144.095 110.959Z" fill="#263238"/>
<path d="M145.948 95.9526C145.948 96.0173 140.347 96.0728 133.44 96.0728C126.532 96.0728 120.932 96.0173 120.932 95.9526C120.932 95.888 126.532 95.8325 133.44 95.8325C140.347 95.8325 145.948 95.8833 145.948 95.9526Z" fill="#FAFAFA"/>
<path d="M137.696 93.0651C136.261 93.177 134.82 93.2094 133.38 93.1621C131.942 93.1954 130.502 93.1461 129.069 93.0143C130.503 92.9054 131.943 92.8746 133.38 92.9219C134.821 92.8913 136.261 92.9391 137.696 93.0651Z" fill="#263238"/>
<path d="M148.668 101.044C148.668 101.109 141.871 101.164 133.482 101.164C125.093 101.164 118.291 101.109 118.291 101.044C118.291 100.979 125.093 100.919 133.482 100.919C141.871 100.919 148.668 100.975 148.668 101.044Z" fill="#FAFAFA"/>
<path d="M149.608 106.26C149.608 106.329 142.27 106.38 133.193 106.38C124.116 106.38 116.777 106.329 116.777 106.26C116.777 106.19 124.116 106.14 133.193 106.14C142.27 106.14 149.608 106.209 149.608 106.26Z" fill="#FAFAFA"/>
<path d="M150.195 111.365C150.195 111.43 142.439 111.485 132.871 111.485C123.303 111.485 115.547 111.43 115.547 111.365C115.547 111.301 123.303 111.245 132.871 111.245C142.439 111.245 150.195 111.296 150.195 111.365Z" fill="#FAFAFA"/>
<path d="M152.539 119.658C152.539 119.722 143.92 119.778 133.275 119.778C122.629 119.778 114.011 119.722 114.011 119.658C114.011 119.593 122.629 119.538 133.275 119.538C143.92 119.538 152.539 119.584 152.539 119.658Z" fill="#FAFAFA"/>
<path d="M147.012 125.465C147.012 125.53 141.324 125.585 134.311 125.585C127.298 125.585 121.611 125.53 121.611 125.465C121.611 125.401 127.294 125.345 134.311 125.345C141.329 125.345 147.012 125.396 147.012 125.465Z" fill="#FAFAFA"/>
<path d="M141.132 112.155L140.861 111.952C140.169 111.428 139.376 111.056 138.532 110.86C137.688 110.663 136.813 110.646 135.963 110.811C134.563 111.081 133.252 111.7 132.151 112.612L130.019 114.382L132.284 118.475L133.83 116.299C133.83 116.299 135.27 118.267 135.527 118.059C135.756 117.814 135.946 117.535 136.091 117.232L135.064 115.782L137.532 116.299L141.132 114.641L139.586 112.673L141.132 113.19V112.155Z" fill="#FFBE9D"/>
<path d="M137.329 111.781L129.408 121.441L130.018 122.102L142.87 120.129L149.246 110.469L148.654 109.933L137.329 111.781Z" fill="#263238"/>
<path d="M145.732 114.331C145.485 114.33 145.244 114.405 145.04 114.545C144.836 114.685 144.679 114.885 144.59 115.116C144.451 115.599 144.181 116.033 143.81 116.368C143.237 116.683 142.251 116.932 141.733 116.678C141.214 116.424 139.137 114.539 138.774 114.747C138.412 114.955 138.1 115.426 138.462 115.846C138.825 116.267 140.756 117.519 140.384 117.939C140.013 118.36 135.967 116.516 135.339 116.678C134.711 116.84 134.353 117.223 134.715 117.477C135.077 117.731 137.829 118.776 137.985 119.14C137.985 119.14 133.83 118.041 133.674 118.304C133.518 118.568 133.261 118.983 133.674 119.14C134.087 119.298 137.673 120.24 137.985 120.397C138.5 120.61 139.037 120.765 139.586 120.859C140.153 121.007 140.712 121.185 141.26 121.39C142.1 121.687 143.019 121.662 143.843 121.321L144.265 121.15C144.584 121.019 144.854 120.79 145.037 120.496C145.221 120.201 145.308 119.857 145.287 119.51L145.205 118.087L145.663 116.909L145.732 114.331Z" fill="#FFBE9D"/>
<path d="M149.269 110.557C149.192 110.587 149.112 110.607 149.03 110.617L148.342 110.737L145.81 111.148L142.049 111.726L139.829 112.063C139.045 112.15 138.301 112.453 137.678 112.941C137.107 113.5 136.584 114.108 136.114 114.756C135.623 115.366 135.155 115.958 134.706 116.521L132.316 119.501L130.688 121.506L130.229 122.042C130.18 122.107 130.123 122.166 130.06 122.218C130.06 122.218 130.096 122.144 130.193 122.014L130.61 121.451L132.179 119.409L134.532 116.392L135.908 114.618C136.386 113.957 136.92 113.339 137.504 112.77C138.158 112.257 138.941 111.937 139.765 111.846L141.989 111.522L145.76 110.991L148.305 110.654L148.998 110.575C149.086 110.554 149.178 110.548 149.269 110.557Z" fill="#455A64"/>
<path d="M143.255 112.672C143.118 112.744 142.996 112.843 142.898 112.963C142.853 113.027 142.829 113.103 142.829 113.181C142.829 113.258 142.853 113.334 142.898 113.398C142.971 113.463 143.066 113.499 143.164 113.499C143.261 113.499 143.356 113.463 143.43 113.398C143.533 113.324 143.605 113.213 143.631 113.088C143.645 113.026 143.642 112.962 143.624 112.901C143.605 112.84 143.572 112.785 143.526 112.742C143.476 112.703 143.415 112.682 143.352 112.682C143.289 112.682 143.227 112.703 143.177 112.742" fill="#FAFAFA"/>
<path d="M105.736 90.9491L103.406 86.7911C104.847 84.4339 105.361 81.619 104.846 78.8998C104.331 76.1805 102.825 73.7536 100.624 72.0962C98.4224 70.4387 95.6852 69.6707 92.9502 69.9429C90.2152 70.2152 87.6803 71.5081 85.8437 73.5676C84.0071 75.627 83.0018 78.3039 83.0253 81.0721C83.0488 83.8402 84.0995 86.4994 85.9708 88.5269C87.8421 90.5543 90.3986 91.8034 93.1378 92.0285C95.877 92.2536 98.6007 91.4384 100.774 89.7433L105.736 90.9491Z" fill="#1B755E"/>
<path d="M90.2334 79.6763C90.2334 78.6784 90.8297 78.0454 91.6782 78.0454C92.5267 78.0454 93.1138 78.6691 93.1138 79.6763C93.1138 80.6834 92.5221 81.3118 91.6782 81.3118C90.8343 81.3118 90.2334 80.6788 90.2334 79.6763ZM92.2836 79.6763C92.2836 79.0433 92.0405 78.7523 91.6782 78.7523C91.3159 78.7523 91.0728 79.0664 91.0728 79.6763C91.0728 80.2861 91.3204 80.6003 91.6782 80.6003C92.036 80.6003 92.2836 80.3138 92.2836 79.6763ZM95.1365 78.1101H96.1227L92.1598 84.0376H91.1737L95.1365 78.1101ZM94.1825 82.4714C94.1825 81.4735 94.7788 80.8359 95.6181 80.8359C96.4575 80.8359 97.0584 81.4735 97.0584 82.4714C97.0584 83.4693 96.4621 84.1069 95.6181 84.1069C94.7742 84.1069 94.1825 83.4693 94.1825 82.4714ZM96.2236 82.4714C96.2236 81.8431 95.9805 81.5474 95.6181 81.5474C95.2558 81.5474 95.0127 81.8523 95.0127 82.4714C95.0127 83.0905 95.2604 83.3954 95.6181 83.3954C95.9759 83.3954 96.2236 83.0997 96.2236 82.4714Z" fill="white"/>
</svg>
